<svg width="80" height="80" viewBox="0 0 80 80" fill="none" xmlns="http://www.w3.org/2000/svg">
<path d="M35.6699 7.5C37.5944 4.16667 42.4056 4.16667 44.3301 7.5L70.3109 52.5C72.2354 55.8333 69.8298 60 65.9808 60H14.0192C10.1702 60 7.76461 55.8333 9.68911 52.5L35.6699 7.5Z" fill="#DF0000"/>
<path d="M43.1626 24.3636L42.6364 43.7145H37.6974L37.1577 24.3636H43.1626ZM40.1669 52.3509C39.2763 52.3509 38.5116 52.036 37.8729 51.4062C37.2341 50.7675 36.9193 50.0028 36.9283 49.1122C36.9193 48.2306 37.2341 47.4749 37.8729 46.8452C38.5116 46.2154 39.2763 45.9006 40.1669 45.9006C41.0215 45.9006 41.7727 46.2154 42.4205 46.8452C43.0682 47.4749 43.3965 48.2306 43.4055 49.1122C43.3965 49.706 43.2391 50.2502 42.9332 50.745C42.6364 51.2308 42.245 51.6222 41.7592 51.919C41.2734 52.2069 40.7427 52.3509 40.1669 52.3509Z" fill="white"/>
</svg>
